<?xml version="1.0" standalone="no"?>
<!DOCTYPE svg PUBLIC "-//W3C//DTD SVG 20010904//PT-BR"
 "http://www.w3.org/TR/2001/REC-SVG-20010904/DTD/svg10.dtd">

<svg version="1.0" xmlns="http://www.w3.org/2000/svg" width="512.000000pt" height="512.000000pt" viewBox="0 0 512.000000 512.000000" preserveAspectRatio="xMidYMid meet">

    <g transform="translate(0.000000,512.000000) scale(0.100000,-0.100000)"
    fill="#000000" stroke="none">

         <path fill='#07c972' d="M1981 4470 c-956 -120 -1564 -1081 -1261 -1993 221 -665 859 -1090
         1555 -1036 257 20 499 100 704 233 39 25 75 46 79 46 4 0 250 -243 547 -540
         l540 -541 167 173 167 173 -541 542 -541 541 47 74 c95 147 168 326 208 511
         19 87 22 133 22 307 0 174 -3 220 -21 302 -106 473 -399 852 -818 1057 -217
         106 -388 149 -630 156 -82 2 -183 0 -224 -5z m426 -334 c474 -103 836 -466
         934 -936 29 -142 30 -345 1 -480 -105 -491 -485 -861 -973 -946 -139 -24 -370
         -15 -502 20 -486 126 -837 531 -897 1034 -26 213 19 471 117 667 80 159 236
         341 383 444 144 101 320 175 480 201 41 6 82 13 90 15 37 9 302 -5 367 -19z"/>
    </g>
</svg>
